<svg width="18" height="23" viewBox="0 0 18 23" fill="none" xmlns="http://www.w3.org/2000/svg">
<path fill-rule="evenodd" clip-rule="evenodd" d="M17.3633 9.42833C17.7063 7.13556 15.9606 5.90302 13.5736 5.08079L14.3479 1.97494L12.4573 1.50379L11.7035 4.52779C11.2065 4.40394 10.696 4.2871 10.1888 4.17133L10.948 1.1274L9.05857 0.65625L8.28372 3.76102C7.87234 3.66733 7.46849 3.57471 7.07649 3.47725L7.07864 3.46756L4.47141 2.81656L3.96849 4.83579C3.96849 4.83579 5.37118 5.15725 5.34157 5.17717C6.10726 5.36833 6.24564 5.87502 6.22249 6.27671L5.34049 9.81494C5.39326 9.8284 5.46164 9.84779 5.53703 9.87794L5.47297 9.86194C5.42912 9.85095 5.38367 9.83956 5.33726 9.8284L4.10095 14.7849C4.00726 15.0176 3.7698 15.3665 3.23457 15.234C3.25341 15.2615 1.86041 14.891 1.86041 14.891L0.921875 17.0551L3.38211 17.6684C3.65686 17.7373 3.92831 17.808 4.19694 17.8781C4.37579 17.9247 4.55339 17.9711 4.72987 18.0163L3.94749 21.1576L5.83588 21.6288L6.61072 18.5208C7.12657 18.6608 7.62734 18.79 8.11734 18.9117L7.34518 22.0052L9.23572 22.4763L10.0181 19.3409C13.2419 19.9509 15.666 19.7049 16.6864 16.7891C17.5086 14.4414 16.6455 13.0872 14.9493 12.2041C16.1846 11.9192 17.115 11.1067 17.3633 9.42833ZM13.0437 15.4855C12.5077 17.6394 9.13627 16.7489 7.59367 16.3415L7.59364 16.3415C7.45486 16.3048 7.33088 16.2721 7.22511 16.2458L8.26326 12.084C8.39207 12.1162 8.54945 12.1515 8.72773 12.1915L8.72774 12.1915C10.3232 12.5495 13.593 13.2832 13.0437 15.4855ZM9.0483 10.2601C10.3344 10.6034 13.1398 11.352 13.6285 9.3944C14.1275 7.39203 11.4009 6.78842 10.0693 6.49364C9.91946 6.46048 9.78732 6.43122 9.67941 6.40433L8.73818 10.1789C8.82709 10.2011 8.93142 10.2289 9.0483 10.2601Z" fill="white"/>
</svg>
