<svg width="17" height="17" viewBox="0 0 17 17" fill="none" xmlns="http://www.w3.org/2000/svg">
<path fill-rule="evenodd" clip-rule="evenodd" d="M1.95016 0.845703C1.37578 0.845703 0.910156 1.31133 0.910156 1.8857V15.4057C0.910156 15.9801 1.37578 16.4457 1.95016 16.4457H14.9698C15.5441 16.4457 16.0098 15.9801 16.0098 15.4057V1.8857C16.0098 1.31133 15.5441 0.845703 14.9698 0.845703H1.95016ZM3.428 2.33349C3.14081 2.33349 2.908 2.56631 2.908 2.85349V4.49584C2.908 4.78303 3.14081 5.01584 3.428 5.01584H13.4174C13.7046 5.01584 13.9374 4.78303 13.9374 4.49584V2.85349C13.9374 2.56631 13.7046 2.33349 13.4174 2.33349H3.428ZM4.61352 7.8217C4.61352 7.53451 4.84633 7.3017 5.13352 7.3017H6.78152C7.06871 7.3017 7.30152 7.53451 7.30152 7.8217V9.4697C7.30152 9.75689 7.06871 9.9897 6.78152 9.9897H5.13352C4.84633 9.9897 4.61352 9.75689 4.61352 9.4697V7.8217ZM10.0639 7.3017C9.77671 7.3017 9.54389 7.53451 9.54389 7.8217V9.4697C9.54389 9.75689 9.7767 9.9897 10.0639 9.9897H11.7119C11.9991 9.9897 12.2319 9.75689 12.2319 9.4697V7.8217C12.2319 7.53451 11.9991 7.3017 11.7119 7.3017H10.0639ZM4.61352 12.2152C4.61352 11.928 4.84633 11.6952 5.13352 11.6952H6.78152C7.06871 11.6952 7.30152 11.928 7.30152 12.2152V13.8632C7.30152 14.1504 7.06871 14.3832 6.78152 14.3832H5.13352C4.84633 14.3832 4.61352 14.1504 4.61352 13.8632V12.2152ZM10.0639 11.6952C9.77671 11.6952 9.54389 11.928 9.54389 12.2152V13.8632C9.54389 14.1504 9.7767 14.3832 10.0639 14.3832H11.7119C11.9991 14.3832 12.2319 14.1504 12.2319 13.8632V12.2152C12.2319 11.928 11.9991 11.6952 11.7119 11.6952H10.0639Z" fill="#A796C6"/>
</svg>
