<svg width="15" height="17" viewBox="0 0 15 17" fill="none" xmlns="http://www.w3.org/2000/svg">
<path fill-rule="evenodd" clip-rule="evenodd" d="M6.20868 0.311523C6.05321 0.311523 5.92146 0.425985 5.89974 0.57993L5.71788 1.86876C2.5809 2.64733 0.255859 5.48206 0.255859 8.85982C0.255859 12.8378 3.48068 16.0627 7.4587 16.0627C11.4367 16.0627 14.6615 12.8378 14.6615 8.85982C14.6615 5.48476 12.3402 2.65188 9.20706 1.87064L9.02969 0.581011C9.00844 0.42658 8.87648 0.311523 8.72059 0.311523H6.20868ZM7.0187 4.35881C6.73151 4.35881 6.4987 4.59162 6.4987 4.87881V9.83827H8.4187V4.87881C8.4187 4.59162 8.18588 4.35881 7.8987 4.35881H7.0187ZM11.8202 9.73222C12.0902 9.83031 12.2296 10.1288 12.1313 10.3988L11.8304 11.2254C11.7322 11.4953 11.4338 11.6344 11.1639 11.5362L6.50357 9.83998H8.41907V8.49699L11.8202 9.73222Z" fill="#A796C6"/>
</svg>
