<svg width="70" height="35" viewBox="0 0 70 35" fill="none" xmlns="http://www.w3.org/2000/svg">
<rect width="70" height="35" rx="2" fill="#121C39"/>
<path d="M15.4062 21.4004V23H10.3955V21.4004H15.4062ZM11.0586 13.0469V23H9.00781V13.0469H11.0586ZM24.3066 17.791V18.2627C24.3066 19.0192 24.2041 19.6982 23.999 20.2998C23.7939 20.9014 23.5046 21.4141 23.1309 21.8379C22.7572 22.2572 22.3105 22.5785 21.791 22.8018C21.276 23.0251 20.7041 23.1367 20.0752 23.1367C19.4508 23.1367 18.8789 23.0251 18.3594 22.8018C17.8444 22.5785 17.3978 22.2572 17.0195 21.8379C16.6413 21.4141 16.3473 20.9014 16.1377 20.2998C15.9326 19.6982 15.8301 19.0192 15.8301 18.2627V17.791C15.8301 17.0299 15.9326 16.3509 16.1377 15.7539C16.3428 15.1523 16.6322 14.6396 17.0059 14.2158C17.3841 13.792 17.8307 13.4684 18.3457 13.2451C18.8652 13.0218 19.4372 12.9102 20.0615 12.9102C20.6904 12.9102 21.2624 13.0218 21.7773 13.2451C22.2969 13.4684 22.7435 13.792 23.1172 14.2158C23.4954 14.6396 23.7871 15.1523 23.9922 15.7539C24.2018 16.3509 24.3066 17.0299 24.3066 17.791ZM22.2354 18.2627V17.7773C22.2354 17.2487 22.1875 16.7839 22.0918 16.3828C21.9961 15.9818 21.8548 15.6445 21.668 15.3711C21.4811 15.0977 21.2533 14.8926 20.9844 14.7559C20.7155 14.6146 20.4079 14.5439 20.0615 14.5439C19.7152 14.5439 19.4076 14.6146 19.1387 14.7559C18.8743 14.8926 18.6488 15.0977 18.4619 15.3711C18.2796 15.6445 18.1406 15.9818 18.0449 16.3828C17.9492 16.7839 17.9014 17.2487 17.9014 17.7773V18.2627C17.9014 18.7868 17.9492 19.2516 18.0449 19.6572C18.1406 20.0583 18.2819 20.3978 18.4688 20.6758C18.6556 20.9492 18.8835 21.1566 19.1523 21.2979C19.4212 21.4391 19.7288 21.5098 20.0752 21.5098C20.4215 21.5098 20.7292 21.4391 20.998 21.2979C21.2669 21.1566 21.4925 20.9492 21.6748 20.6758C21.8571 20.3978 21.9961 20.0583 22.0918 19.6572C22.1875 19.2516 22.2354 18.7868 22.2354 18.2627ZM33.6719 17.7979V21.7422C33.5169 21.929 33.2777 22.1318 32.9541 22.3506C32.6305 22.5648 32.2135 22.7493 31.7031 22.9043C31.1927 23.0592 30.5752 23.1367 29.8506 23.1367C29.208 23.1367 28.6224 23.0319 28.0938 22.8223C27.5651 22.6081 27.1094 22.2959 26.7266 21.8857C26.3483 21.4756 26.0566 20.9743 25.8516 20.3818C25.6465 19.7848 25.5439 19.1035 25.5439 18.3379V17.7158C25.5439 16.9502 25.6419 16.2689 25.8379 15.6719C26.0384 15.0749 26.3232 14.5713 26.6924 14.1611C27.0615 13.751 27.5013 13.4388 28.0117 13.2246C28.5221 13.0104 29.0895 12.9033 29.7139 12.9033C30.5798 12.9033 31.2907 13.0446 31.8467 13.3271C32.4027 13.6051 32.8265 13.9925 33.1182 14.4893C33.4144 14.9814 33.5967 15.5465 33.665 16.1846H31.6758C31.6257 15.8473 31.5299 15.5534 31.3887 15.3027C31.2474 15.0521 31.0446 14.8561 30.7803 14.7148C30.5205 14.5736 30.1833 14.5029 29.7686 14.5029C29.4268 14.5029 29.1214 14.5736 28.8525 14.7148C28.5882 14.8516 28.3649 15.0544 28.1826 15.3232C28.0003 15.5921 27.8613 15.9248 27.7656 16.3213C27.6699 16.7178 27.6221 17.1781 27.6221 17.7021V18.3379C27.6221 18.8574 27.6722 19.3177 27.7725 19.7188C27.8727 20.1152 28.0208 20.4502 28.2168 20.7236C28.4173 20.9925 28.6634 21.1953 28.9551 21.332C29.2467 21.4688 29.5863 21.5371 29.9736 21.5371C30.2972 21.5371 30.5661 21.5098 30.7803 21.4551C30.999 21.4004 31.1745 21.3343 31.3066 21.2568C31.4434 21.1748 31.5482 21.0973 31.6211 21.0244V19.2607H29.748V17.7979H33.6719ZM43.502 17.791V18.2627C43.502 19.0192 43.3994 19.6982 43.1943 20.2998C42.9893 20.9014 42.6999 21.4141 42.3262 21.8379C41.9525 22.2572 41.5059 22.5785 40.9863 22.8018C40.4714 23.0251 39.8994 23.1367 39.2705 23.1367C38.6462 23.1367 38.0742 23.0251 37.5547 22.8018C37.0397 22.5785 36.5931 22.2572 36.2148 21.8379C35.8366 21.4141 35.5426 20.9014 35.333 20.2998C35.1279 19.6982 35.0254 19.0192 35.0254 18.2627V17.791C35.0254 17.0299 35.1279 16.3509 35.333 15.7539C35.5381 15.1523 35.8275 14.6396 36.2012 14.2158C36.5794 13.792 37.026 13.4684 37.541 13.2451C38.0605 13.0218 38.6325 12.9102 39.2568 12.9102C39.8857 12.9102 40.4577 13.0218 40.9727 13.2451C41.4922 13.4684 41.9388 13.792 42.3125 14.2158C42.6908 14.6396 42.9824 15.1523 43.1875 15.7539C43.3971 16.3509 43.502 17.0299 43.502 17.791ZM41.4307 18.2627V17.7773C41.4307 17.2487 41.3828 16.7839 41.2871 16.3828C41.1914 15.9818 41.0501 15.6445 40.8633 15.3711C40.6764 15.0977 40.4486 14.8926 40.1797 14.7559C39.9108 14.6146 39.6032 14.5439 39.2568 14.5439C38.9105 14.5439 38.6029 14.6146 38.334 14.7559C38.0697 14.8926 37.8441 15.0977 37.6572 15.3711C37.4749 15.6445 37.3359 15.9818 37.2402 16.3828C37.1445 16.7839 37.0967 17.2487 37.0967 17.7773V18.2627C37.0967 18.7868 37.1445 19.2516 37.2402 19.6572C37.3359 20.0583 37.4772 20.3978 37.6641 20.6758C37.8509 20.9492 38.0788 21.1566 38.3477 21.2979C38.6165 21.4391 38.9242 21.5098 39.2705 21.5098C39.6169 21.5098 39.9245 21.4391 40.1934 21.2979C40.4622 21.1566 40.6878 20.9492 40.8701 20.6758C41.0524 20.3978 41.1914 20.0583 41.2871 19.6572C41.3828 19.2516 41.4307 18.7868 41.4307 18.2627ZM50.4746 13.0469H52.5186V19.623C52.5186 20.3887 52.3545 21.0335 52.0264 21.5576C51.7028 22.0817 51.2539 22.4759 50.6797 22.7402C50.11 23.0046 49.4538 23.1367 48.7109 23.1367C47.9681 23.1367 47.3073 23.0046 46.7285 22.7402C46.1543 22.4759 45.7031 22.0817 45.375 21.5576C45.0514 21.0335 44.8896 20.3887 44.8896 19.623V13.0469H46.9404V19.623C46.9404 20.0697 47.0111 20.4342 47.1523 20.7168C47.2936 20.9993 47.4964 21.2067 47.7607 21.3389C48.0296 21.471 48.3464 21.5371 48.7109 21.5371C49.0846 21.5371 49.4014 21.471 49.6611 21.3389C49.9255 21.2067 50.126 20.9993 50.2627 20.7168C50.404 20.4342 50.4746 20.0697 50.4746 19.623V13.0469ZM58.6572 13.0469V23H56.6133V13.0469H58.6572ZM61.7197 13.0469V14.6533H53.5986V13.0469H61.7197Z" fill="#8C68CD"/>
</svg>
